<?xml version="1.0" encoding="UTF-8" standalone="no"?>
<svg
   width="76mm"
   height="76mm"
   viewBox="0 0 76 76"
   version="1.1"
   id="svg5"
   xmlns="http://www.w3.org/2000/svg">
  <defs
     id="defs2" />
  <g
     id="layer1"
     transform="translate(-12,-12)">
    <circle
       style="font-variation-settings:normal;fill:#ffffff;fill-opacity:1;stroke:#ffffff;stroke-width:0;stroke-linecap:round;stroke-linejoin:round;stroke-miterlimit:4;stroke-dasharray:none;stroke-dashoffset:0;stroke-opacity:1;stop-color:#000000"
       id="path3069-6"
       cx="50"
       cy="50"
       r="35"
       class="UnoptimicedTransforms"
       transform="matrix(1.0857143,0,0,1.0857143,-4.285714,-4.285714)" />
    <path
       id="path3069"
       style="font-variation-settings:normal;opacity:1;fill:#808080;fill-opacity:1;stroke:#ffffff;stroke-width:0;stroke-linecap:round;stroke-linejoin:round;stroke-miterlimit:4;stroke-dasharray:none;stroke-dashoffset:0;stroke-opacity:1;stop-color:#000000;stop-opacity:1"
       class="UnoptimicedTransforms"
       d="m 50.040501,20.535775 c -8.944703,0 -13.483673,10.728333 -13.483673,20.235742 0,11.2266 4.238964,9.038595 4.238964,16.309966 0,9.038847 -14.844008,10.706719 -20.729797,11.014355 A 35,35 0 0 0 50.000044,84.999811 35,35 0 0 0 79.893636,68.164854 C 73.900215,67.848019 59.341851,66.204162 59.341851,57.654547 c 0,-7.549004 4.385561,-4.909605 4.385561,-16.781173 0,-9.580275 -4.281558,-20.337599 -13.686911,-20.337599 z"
       transform="matrix(1.0857143,0,0,1.0857143,-4.285714,-4.285714)" />
  </g>
</svg>
