<?xml version="1.0" encoding="UTF-8"?>
<svg xmlns="http://www.w3.org/2000/svg" viewBox="0 0 435.67 435.67">
  <defs>
    <style>
      .cls-1 {
        fill: #fff;
      }

      .cls-2 {
        fill: #d60b52;
      }
    </style>
  </defs>
  <g id="Laag_2">
    <circle class="cls-2" cx="217.83" cy="217.83" r="217.83"/>
  </g>
  <g id="Laag_1">
    <g>
      <path class="cls-1" d="M356.82,243.41c0,40.66-29.42,65.26-78.1,65.26h-32.9c-7.39,0-13.37,5.99-13.37,13.37v29.96c0,7.39-5.99,13.37-13.37,13.37h0c-7.39,0-13.37-5.99-13.37-13.37V191.52c0-7.39,5.99-13.37,13.37-13.37h59.65c48.68,0,78.1,24.61,78.1,65.26Zm-26.75,0c0-26.75-17.92-41.99-52.16-41.99h-32.1c-7.39,0-13.37,5.99-13.37,13.37v57.24c0,7.39,5.99,13.37,13.37,13.37h32.1c34.24,0,52.16-15.25,52.16-41.99Z"/>
      <path class="cls-1" d="M91.05,240.52l23.39-33.11c3.98-5.63,2.17-13.39-3.79-16.84-18.83-10.89-29.35-29.46-29.35-53.67,0-40.66,29.42-65.26,78.1-65.26h61.38c6.43,0,11.63,5.21,11.63,11.63V247.23c0,6.43-5.21,11.63-11.63,11.63h-3.48c-6.43,0-11.63-5.21-11.63-11.63v-33.7c0-6.43-5.21-11.63-11.63-11.63h-34.64c-1.83,0-3.67-.06-5.48-.14-3.97-.19-7.75,1.68-10.03,4.93l-33.17,47.23c-2.18,3.1-5.73,4.95-9.52,4.95h-.64c-9.44,0-14.95-10.64-9.5-18.35Zm69.15-61.36h33.84c6.43,0,11.63-5.21,11.63-11.63v-60.98c0-6.43-5.21-11.63-11.63-11.63h-33.84c-34.24,0-52.16,15.25-52.16,41.99s17.92,42.26,52.16,42.26Z"/>
    </g>
  </g>
</svg>