<?xml version="1.0" encoding="utf-8"?>
<!-- Generator: Adobe Illustrator 25.0.0, SVG Export Plug-In . SVG Version: 6.00 Build 0)  -->
<svg version="1.1" id="svg1535" xmlns="http://www.w3.org/2000/svg" xmlns:xlink="http://www.w3.org/1999/xlink" x="0px" y="0px"
	 viewBox="0 0 3980.9 3121.1" style="enable-background:new 0 0 3980.9 3121.1;" xml:space="preserve">
<style type="text/css">
	.st0{display:none;fill:none;stroke:#FFFFFF;stroke-width:250;stroke-linecap:round;stroke-linejoin:round;stroke-opacity:0.3405;}
	.st1{display:none;fill:none;stroke:#FFFFFF;stroke-width:500;stroke-linecap:round;stroke-linejoin:round;}
	.st2{fill:url(#path1436_1_);stroke:#000000;stroke-width:86.4907;stroke-linecap:round;stroke-linejoin:round;}
	.st3{stroke:#000000;stroke-width:72.7315;stroke-linecap:round;stroke-linejoin:round;}
	.st4{stroke:#000000;stroke-width:72.7315;stroke-linecap:round;stroke-linejoin:round;stroke-opacity:0.9766;}
	.st5{fill:#CFC8E1;stroke:#000000;stroke-width:0.8649;}
	.st6{fill:#FFFFFF;fill-opacity:0;stroke:#000000;stroke-width:86.4907;stroke-linecap:round;}
	.st7{fill:url(#path1464_1_);stroke:#000000;stroke-width:72.7318;stroke-linejoin:bevel;}
	.st8{fill:#FFFFFF;stroke:#000000;stroke-width:5.3202;}
	.st9{fill:url(#rect1916_1_);}
	.st10{fill:none;stroke:#927A65;stroke-width:86.4907;stroke-linecap:round;stroke-linejoin:round;}
</style>
<path id="path8115-7" class="st0" d="M413.4,1644.4c0,0-158-380.3,74.8-822.6c187-355.2-287.9-418.8-224.4-774
	s48.6-284.2,48.6-284.2"/>
<path id="path8117-5" class="st0" d="M1153.2,1038.2c0,0-209.4-302.9,15-538.5S891.4,264.2,925.1-5.1
	c33.7-269.2,33.7-269.2,33.7-269.2"/>
<path id="path8244-7" class="st0" d="M1758.9,582c0,0-134.6-314.1,15-534.7s33.7-332.8,33.7-332.8"/>
<path id="path991" class="st1" d="M116.7,2288c982.5-865.2,1811.2-1708.9,2622.9-2594.2c370.6,200.3,923.6,357.4,1181.6,634.9
	l-220.2,2032c0,0-45.4,908-927.4,940.8c-881.9,32.8-2064.9,183.2-2064.9,183.2C379.6,3219.7,271.8,2655.4,116.7,2288z"/>
<g id="g1385" transform="translate(-55.137157,-899.47356)">
	
		<linearGradient id="path1436_1_" gradientUnits="userSpaceOnUse" x1="1327.7231" y1="3280.1475" x2="1335.3923" y2="2771.209" gradientTransform="matrix(3.7335 2.196153e-02 2.196153e-02 -3.7335 -2985.9785 14321.29)">
		<stop  offset="0" style="stop-color:#FFFFFF"/>
		<stop  offset="0.3823" style="stop-color:#FFFCF7"/>
		<stop  offset="1" style="stop-color:#DCD2C4"/>
	</linearGradient>
	<path id="path1436" class="st2" d="M101.3,2121.9L98.4,2610l744.8,616.4l685.8,567.5l0,0c292.7,242.2,715.5,245,1011.4,6.7
		l1449.5-1167.7l2.9-488.1L101.3,2121.9z"/>
	<path id="path1442-9-2" class="st3" d="M1484.5,3748.4l-1366-1128.3c0,0,1027.8,205.8,1410.9,1158.6"/>
	<path id="path1442-9-2-8" class="st4" d="M2582.6,3756.7l1381.3-1109.4c0,0-1030.5,191.6-1426.7,1139.1"/>
	<path id="path4640" class="st5" d="M279.9,2702.2c0,0,1136.6,953,1157.2,958.4C1457.8,3665.9,1107.5,2968.4,279.9,2702.2
		L279.9,2702.2z"/>
	<path id="path5263" class="st5" d="M3803.9,2728c0,0-1157.4,937.4-1167.5,937.4S2929.1,3009.5,3803.9,2728z"/>
	<path id="path1445" class="st6" d="M2498.7,3258.1l-77-54.9l-21.9-15.6l0,0c-108.9-77.6-247.3-101-375.6-63.4
		c-157.4,46.1-278.1,87.6-444.6,222"/>
	
		<linearGradient id="path1464_1_" gradientUnits="userSpaceOnUse" x1="-540.7122" y1="1101.5266" x2="3067.0264" y2="1101.5266" gradientTransform="matrix(0.6194 0.6036 0.6036 -0.6194 597.5318 1911.314)">
		<stop  offset="0" style="stop-color:#6C3BF4"/>
		<stop  offset="0.5" style="stop-color:#C53BF4"/>
		<stop  offset="1" style="stop-color:#6C3BF4"/>
	</linearGradient>
	<path id="path1464" class="st7" d="M476.2,1533.7c1141.8,125.4,1986,119.8,3189.3-0.9l333.1,609.3L90.3,2124.7L476.2,1533.7z"/>
	<g id="g1124" transform="matrix(0.67345286,0.6562635,-0.65125209,0.66831018,1895.7278,-650.27349)">
		<path id="path1493" d="M1002.9,3174.4l2142.9-2063.7l156.6,162.8l-82.4,79.3l79.2,82.4l-82.4,79.3l79.3,82.3l-82.5,79.4l79.3,82.3
			L2715.2,2315l-79.1-82.5l-88.1,73.7l-73.7-76.5l-82.7,79.6l-158.3-164.9l-165,158.9l158.6,164.6l-82.6,79.5l79.3,82.3l-82.6,79.5
			l79.3,82.3l-579.4,558l-79.3-82.3l-80.6,77.6l-81.1-80.6l-80.6,77.6l-79.4-82.2l-80.5,77.5L1002.9,3174.4z"/>
		<path id="path1496" class="st8" d="M2481.9,2068.9l82.8-79.1l79.3,82.3l-82.5,79.5L2481.9,2068.9z"/>
		<path id="path1499" class="st8" d="M2643.8,2071.8l82.8-79.1l79.3,82.3l-82.5,79.5L2643.8,2071.8z"/>
		<path id="path1502" class="st8" d="M2485.4,1906.9l82.8-79.1l79.3,82.3l-82.5,79.5L2485.4,1906.9z"/>
		<path id="path1505" class="st8" d="M1405.3,3102.1l82.8-79.1l79.3,82.3l-82.5,79.5L1405.3,3102.1z"/>
		<path id="path1508" class="st8" d="M2320.3,2065.9l82.8-79.1l79.3,82.3l-82.5,79.5L2320.3,2065.9z"/>
		<path id="path1511" class="st8" d="M1567.1,3104.9l82.8-79.1l79.3,82.3l-82.5,79.5L1567.1,3104.9z"/>
		<path id="path1514" class="st8" d="M2647,1909.9l82.8-79.1l79.3,82.3l-82.5,79.5L2647,1909.9z"/>
		<path id="path1517" class="st8" d="M1408.7,2940.1l82.8-79.1l79.3,82.3l-82.5,79.5L1408.7,2940.1z"/>
		<path id="path1520" class="st8" d="M2808.8,1912.8l82.8-79.1l79.3,82.3l-82.5,79.5L2808.8,1912.8z"/>
		<path id="path1523" class="st8" d="M1243.6,3099l82.8-79.1l79.3,82.3l-82.5,79.5L1243.6,3099z"/>
		<path id="path1526" class="st8" d="M1570.3,2943.1l82.8-79.1l79.3,82.3l-82.5,79.5L1570.3,2943.1z"/>
		<path id="path1529" class="st8" d="M1732.1,2946l82.8-79.1l79.3,82.3l-82.5,79.5L1732.1,2946z"/>
	</g>
	
		<linearGradient id="rect1916_1_" gradientUnits="userSpaceOnUse" x1="15.7943" y1="1300.4393" x2="-16.2138" y2="1700.6608" gradientTransform="matrix(0.8618 7.375247e-02 7.375247e-02 -0.8618 1937.8617 3231.4316)">
		<stop  offset="0" style="stop-color:#FFFFFF;stop-opacity:0.6429"/>
		<stop  offset="0.3902" style="stop-color:#FFFFFF;stop-opacity:0.6429"/>
		<stop  offset="0.6882" style="stop-color:#FFFFFF;stop-opacity:0.3247"/>
		<stop  offset="1" style="stop-color:#FFFFFF;stop-opacity:0"/>
	</linearGradient>
	<path id="rect1916" class="st9" d="M339.4,1810.3c1154.3,8,2302.4,9.6,3434.4-4.7l166.3,300.4l-3785.2-16.6L339.4,1810.3z"/>
	<path id="path8244" class="st10" d="M2718.7,1430.9c0,0-33.9-184.4,113.5-225.4c141.5-39.4,165.8-265.3,148.5-262.8"/>
	<path id="path8244-8" class="st10" d="M1930,1430.9c0,0-33.9-184.4,113.5-225.4C2185,1166,2209.3,940.2,2192,942.6"/>
	<path id="path8244-3" class="st10" d="M1141.2,1430.9c0,0-33.9-184.4,113.5-225.4c141.5-39.4,165.8-265.3,148.5-262.8"/>
</g>
</svg>
